<?xml version="1.0" encoding="utf-8"?>
<!-- Svg Vector Icons : http://www.onlinewebfonts.com/icon -->
<!DOCTYPE svg PUBLIC "-//W3C//DTD SVG 1.1//EN" "http://www.w3.org/Graphics/SVG/1.1/DTD/svg11.dtd">
<svg version="1.1" xmlns="http://www.w3.org/2000/svg" xmlns:xlink="http://www.w3.org/1999/xlink" x="0px" y="0px" viewBox="0 0 1000 1000" enable-background="new 0 0 1000 1000" xml:space="preserve">
<metadata> Svg Vector Icons : http://www.onlinewebfonts.com/icon </metadata>
<g><g transform="translate(0.000000,511.000000) scale(0.100000,-0.100000)"><path d="M1810.5,3977.8c-545.3-132.6-812.9-570.3-812.9-1325.7c0-627.9,272.6-1125.6,745.4-1360.7c182.6-90.1,200.1-92.6,452.8-92.6c247.6,0,277.7,5,435.2,80c480.3,227.6,770.4,745.4,767.9,1368.2c-2.5,780.4-280.2,1218.2-845.5,1338.2C2380.8,4020.4,1970.5,4017.9,1810.5,3977.8z M2550.9,3572.6c177.6-52.5,327.7-205.1,387.7-390.2c52.5-170.1,75-665.4,37.5-845.5c-150.1-715.4-855.5-995.5-1298.2-515.3c-220.1,240.1-290.2,475.3-275.2,925.5c20,507.8,127.6,715.4,425.2,818C2000.6,3625.1,2360.8,3627.6,2550.9,3572.6z"/><path d="M7413.5,3977.8c-545.3-132.6-812.9-570.3-812.9-1325.7c0-627.9,272.7-1125.6,745.4-1360.7c182.6-90.1,200.1-92.6,455.3-92.6c255.1,0,272.7,2.5,455.3,92.6c472.7,235.1,745.4,732.9,745.4,1360.7c0,770.4-282.6,1213.2-845.5,1333.2C7983.8,4020.4,7573.6,4017.9,7413.5,3977.8z M8153.9,3572.6c175.1-52.5,327.7-205.1,387.7-390.2c62.5-202.6,77.6-722.9,22.5-910.5c-57.5-200.1-122.6-320.2-242.6-450.2c-292.7-317.7-747.9-317.7-1040.6,0c-120.1,130.1-185.1,250.1-242.6,450.2c-55,185.1-40,707.9,22.5,905.5c57.5,182.6,195.1,327.7,365.2,385.2C7603.6,3625.1,7961.3,3627.6,8153.9,3572.6z"/><path d="M4542,2972.3c-487.8-117.6-792.9-452.8-908-998c-62.5-302.7-57.5-868,10-1120.6c167.6-617.8,622.9-1078.1,1160.6-1168.1C5482.5-429.6,6142.8,68.2,6355.4,853.6c67.5,252.6,72.5,817.9,10,1120.6c-115,552.8-417.7,883-920.5,1000.5C5244.8,3022.3,4739.6,3019.8,4542,2972.3z M5259.8,2599.6c377.7-35,622.9-272.6,710.4-680.4c52.5-245.1,62.5-652.9,20-870.5c-80-402.7-325.2-755.4-632.8-903c-125.1-60-175.1-70-357.7-70c-182.6,0-232.6,10-357.7,70c-307.7,147.6-552.8,500.3-632.9,903c-62.5,322.7-20,845.5,92.6,1105.6c65,152.6,227.6,317.7,375.2,380.2c120.1,52.5,442.7,102.6,572.8,87.5C5084.7,2617.1,5177.3,2607.1,5259.8,2599.6z"/><path d="M1385.2,1098.8C639.8,926.2,327.1,673.5,187.1,125.7c-50-185.1-97.5-765.4-85-993.1c10-167.6,12.5-175.1,132.6-300.2c225.1-227.6,710.4-422.7,1240.7-495.3c102.6-12.5,345.2-32.5,540.3-42.5l352.7-17.5l30,110c15,60,37.5,142.6,50,182.6c15,40,25,82.6,25,92.6c0,12.5-110.1,22.5-242.6,22.5c-592.8,0-1145.6,90-1445.8,235.1C514.8-949.9,497.2-927.4,497.2-682.2c0,472.8,87.5,883,222.6,1045.6C817.4,480.9,1035,593.5,1320.2,676l230.1,65l155.1-77.5c315.2-160.1,662.9-160.1,983,0l155.1,77.5l195.1-55c110.1-30,247.6-75,307.7-102.6c60-25,112.6-45,117.6-40c5,2.5-12.5,107.6-37.5,230.1c-45,220.1-45,222.6-140.1,255.1c-52.5,17.5-210.1,57.5-350.2,85l-257.6,55l-87.5-87.5c-190.1-190.1-595.3-192.6-782.9-5c-45,47.5-102.6,85-127.6,82.5C1655.4,1158.8,1522.8,1131.3,1385.2,1098.8z"/><path d="M6988.3,1098.8c-390.2-90-362.7-70-415.2-325.2c-25-122.6-42.5-227.6-37.5-230.1c5-5,57.5,15,117.5,40c60,27.5,197.6,72.5,307.7,102.6l195.1,55l155.1-77.5c310.2-160.1,682.9-157.6,985.5,2.5l142.6,72.5l155.1-37.5c375.2-95.1,617.8-225.1,720.4-390.2c100-157.6,160.1-437.7,177.6-830.5l17.5-347.7l-67.5-70c-215.1-222.6-898-377.7-1683.4-377.7h-252.6l35-92.6c17.5-52.5,45-145.1,60-205.1l27.5-110l367.7,17.5c853,42.5,1460.8,227.6,1768.5,540.3c117.6,117.6,122.6,132.6,132.6,282.7c15,215.1-37.5,825.4-82.5,1005.6c-147.6,562.8-482.8,825.4-1268.2,990.5l-265.1,55l-87.5-87.5c-190.1-190.1-595.3-192.6-782.9-5c-45,47.5-102.6,85-127.6,82.5C7258.4,1158.8,7125.9,1131.3,6988.3,1098.8z"/><path d="M4091.7-464.6c-562.8-122.6-893-272.7-1133.1-510.3c-322.7-322.7-437.7-745.4-445.2-1623.4l-2.5-422.7l167.6-157.6c330.2-312.7,883-507.8,1665.9-590.3c420.2-42.5,1315.7-17.5,1690.9,50c590.3,105,1063.1,307.7,1320.7,570.3l132.6,135.1l-5,425.2c-7.5,878-122.5,1290.7-445.2,1613.4C6798.2-732.3,6443-574.7,5875.2-462.1l-277.7,55l-92.5-90c-120.1-117.6-275.1-172.6-497.8-172.6c-227.6,0-400.2,57.5-507.8,167.6C4401.9-402.1,4391.9-402.1,4091.7-464.6z M4369.4-902.3c305.2-210.1,883-220.1,1225.7-20l107.6,60l50-62.5c60-77.5,205.1-90,275.1-25c42.5,37.5,60,37.5,222.6-15c247.6-80,470.3-220.1,580.3-365.2c170.1-220.1,235.1-507.8,262.6-1135.6l15-387.7l-107.5-97.6c-210.1-190.1-635.4-332.7-1205.7-405.2c-417.7-52.5-1430.8-37.5-1796,25c-455.3,80-853,232.6-1018.1,390.2c-80,75-82.5,82.5-82.5,295.2c0,492.8,70,950.5,180.1,1180.6c122.6,252.6,415.2,440.2,870.5,560.3C4249.3-827.3,4259.3-827.3,4369.4-902.3z"/></g></g>
</svg>