<svg width="300" height="300" viewBox="0 0 300 300" fill="none" xmlns="http://www.w3.org/2000/svg">
<g clip-path="url(#clip0_1443_161710)">
<path d="M290.34 299.918H9.66048C4.32523 299.918 0 295.593 0 290.258V9.57936C0 4.24315 4.32523 -0.0820388 9.66048 -0.0820388H290.34C295.675 -0.0820388 300 4.24315 300 9.57936V290.258C300 295.593 295.675 299.918 290.34 299.918Z" fill="#FFF2EF"/>
<path d="M182.312 137.314H235.286C238.328 137.314 241.247 138.523 243.399 140.674C245.55 142.826 246.759 145.744 246.759 148.787V266.219H182.312V137.314Z" fill="#28BBC7"/>
<path d="M182.312 57.4436H63.0212V266.218H182.312V57.4436Z" fill="#28BBC7"/>
<path opacity="0.125" d="M63.0212 266.218L134.449 56.9727H63.0212V266.218Z" fill="#EBEBEB"/>
<path fill-rule="evenodd" clip-rule="evenodd" d="M143.049 132.119C143.049 133.345 144.043 134.338 145.268 134.338H160.725C161.951 134.338 162.945 133.345 162.945 132.119V97.9804C162.945 96.7546 161.951 95.7609 160.725 95.7609H145.268C144.043 95.7609 143.049 96.7546 143.049 97.9804V132.119ZM147.488 129.899V100.2H158.506V129.899H147.488Z" fill="white"/>
<path fill-rule="evenodd" clip-rule="evenodd" d="M112.729 132.119C112.729 133.345 113.723 134.338 114.949 134.338H130.406C131.632 134.338 132.625 133.345 132.625 132.119V97.9804C132.625 96.7546 131.632 95.7609 130.406 95.7609H114.949C113.723 95.7609 112.729 96.7546 112.729 97.9804V132.119ZM117.168 129.899V100.2H128.186V129.899H117.168Z" fill="white"/>
<path fill-rule="evenodd" clip-rule="evenodd" d="M82.4092 132.119C82.4092 133.345 83.4029 134.338 84.6287 134.338H100.086C101.311 134.338 102.305 133.345 102.305 132.119V97.9804C102.305 96.7546 101.311 95.7609 100.086 95.7609H84.6287C83.4029 95.7609 82.4092 96.7546 82.4092 97.9804V132.119ZM86.8482 129.899V100.2H97.8661V129.899H86.8482Z" fill="white"/>
<path fill-rule="evenodd" clip-rule="evenodd" d="M143.049 184.713C143.049 185.939 144.043 186.933 145.268 186.933H160.725C161.951 186.933 162.945 185.939 162.945 184.713V150.575C162.945 149.349 161.951 148.355 160.725 148.355H145.268C144.043 148.355 143.049 149.349 143.049 150.575V184.713ZM147.488 182.494V152.794H158.506V182.494H147.488Z" fill="white"/>
<path fill-rule="evenodd" clip-rule="evenodd" d="M112.729 184.713C112.729 185.939 113.723 186.933 114.949 186.933H130.406C131.632 186.933 132.625 185.939 132.625 184.713V150.575C132.625 149.349 131.632 148.355 130.406 148.355H114.949C113.723 148.355 112.729 149.349 112.729 150.575V184.713ZM117.168 182.494V152.794H128.186V182.494H117.168Z" fill="white"/>
<path d="M105.542 213.365H140.238C143.281 213.365 146.199 214.575 148.351 216.726C150.502 218.877 151.711 221.796 151.711 224.838V266.218H94.0691V224.838C94.0691 221.796 95.2776 218.877 97.429 216.726C99.5805 214.575 102.5 213.365 105.542 213.365Z" fill="white"/>
<path fill-rule="evenodd" clip-rule="evenodd" d="M82.4092 184.713C82.4092 185.939 83.4029 186.933 84.6287 186.933H100.086C101.311 186.933 102.305 185.939 102.305 184.713V150.575C102.305 149.349 101.311 148.355 100.086 148.355H84.6287C83.4029 148.355 82.4092 149.349 82.4092 150.575V184.713ZM86.8482 182.494V152.794H97.8661V182.494H86.8482Z" fill="white"/>
<path d="M131.945 213.365H113.065V266.218H131.945V213.365Z" fill="#FF8877"/>
<path fill-rule="evenodd" clip-rule="evenodd" d="M192.894 176.444C192.894 177.67 193.888 178.664 195.114 178.664H207.42C208.646 178.664 209.64 177.67 209.64 176.444V161.83C209.64 160.604 208.646 159.61 207.42 159.61H195.114C193.888 159.61 192.894 160.604 192.894 161.83V176.444ZM197.333 174.225V164.049H205.201V174.225H197.333Z" fill="white"/>
<path fill-rule="evenodd" clip-rule="evenodd" d="M192.894 207.71C192.894 208.936 193.888 209.93 195.114 209.93H207.42C208.646 209.93 209.64 208.936 209.64 207.71V193.096C209.64 191.87 208.646 190.876 207.42 190.876H195.114C193.888 190.876 192.894 191.87 192.894 193.096V207.71ZM197.333 205.491V195.315H205.201V205.491H197.333Z" fill="white"/>
<path fill-rule="evenodd" clip-rule="evenodd" d="M192.894 238.975C192.894 240.201 193.888 241.195 195.114 241.195H207.42C208.646 241.195 209.64 240.201 209.64 238.975V224.361C209.64 223.135 208.646 222.142 207.42 222.142H195.114C193.888 222.142 192.894 223.135 192.894 224.361V238.975ZM197.333 236.756V226.581H205.201V236.756H197.333Z" fill="white"/>
<path fill-rule="evenodd" clip-rule="evenodd" d="M218.387 176.444C218.387 177.67 219.381 178.664 220.607 178.664H232.913C234.139 178.664 235.133 177.67 235.133 176.444V161.83C235.133 160.604 234.139 159.61 232.913 159.61H220.607C219.381 159.61 218.387 160.604 218.387 161.83V176.444ZM222.827 174.225V164.049H230.694V174.225H222.827Z" fill="white"/>
<path fill-rule="evenodd" clip-rule="evenodd" d="M218.387 207.71C218.387 208.936 219.381 209.93 220.607 209.93H232.913C234.139 209.93 235.133 208.936 235.133 207.71V193.096C235.133 191.87 234.139 190.876 232.913 190.876H220.607C219.381 190.876 218.387 191.87 218.387 193.096V207.71ZM222.827 205.491V195.315H230.694V205.491H222.827Z" fill="white"/>
<path fill-rule="evenodd" clip-rule="evenodd" d="M218.387 238.975C218.387 240.201 219.381 241.195 220.607 241.195H232.913C234.139 241.195 235.133 240.201 235.133 238.975V224.361C235.133 223.135 234.139 222.142 232.913 222.142H220.607C219.381 222.142 218.387 223.135 218.387 224.361V238.975ZM222.827 236.756V226.581H230.694V236.756H222.827Z" fill="white"/>
<path d="M180.578 43.1348H65.2026C61.1664 43.1348 57.895 46.4062 57.895 50.4424C57.895 54.4776 61.1664 57.749 65.2026 57.749H180.578C184.613 57.749 187.884 54.4776 187.884 50.4424C187.884 46.4062 184.613 43.1348 180.578 43.1348Z" fill="#FF8877"/>
<path d="M158.472 269.131H87.3073C86.0628 269.131 85.0537 268.122 85.0537 266.877V265.558C85.0537 264.314 86.0628 263.305 87.3073 263.305H158.472C159.716 263.305 160.726 264.314 160.726 265.558V266.877C160.726 268.122 159.716 269.131 158.472 269.131Z" fill="#28BBC7"/>
</g>
<defs>
<clipPath id="clip0_1443_161710">
<rect width="300" height="300" fill="white"/>
</clipPath>
</defs>
</svg>
